<svg width="20" height="20" viewBox="0 0 20 20" fill="none" xmlns="http://www.w3.org/2000/svg">
<path fill-rule="evenodd" clip-rule="evenodd" d="M14.334 0H5.665C2.26743 0 0 2.4326 0 5.916V14.084C0 17.5707 2.26137 20 5.665 20H14.333C17.7376 20 20 17.5707 20 14.084V5.916C20 2.4295 17.7378 0 14.334 0ZM5.665 1.5H14.334C16.8845 1.5 18.5 3.23496 18.5 5.916V14.084C18.5 16.7652 16.8844 18.5 14.333 18.5H5.665C3.11476 18.5 1.5 16.7653 1.5 14.084V5.916C1.5 3.23837 3.12034 1.5 5.665 1.5ZM7.07023 7.06221C7.33652 6.79598 7.75319 6.77181 8.04677 6.9897L8.13089 7.06233L9.9986 8.93043L11.8647 7.06437C12.1576 6.77148 12.6324 6.77148 12.9253 7.06437C13.1916 7.33064 13.2158 7.7473 12.9979 8.04091L12.9253 8.12503L11.0592 9.99121L12.9269 11.8593C13.2197 12.1522 13.2197 12.6271 12.9268 12.92C12.6605 13.1862 12.2438 13.2104 11.9502 12.9925L11.8661 12.9199L9.9985 11.0519L8.13333 12.917C7.84044 13.2099 7.36556 13.2099 7.07267 12.917C6.8064 12.6508 6.7822 12.2341 7.00005 11.9405L7.07267 11.8564L8.93795 9.99109L7.07011 8.12287C6.77725 7.82995 6.7773 7.35508 7.07023 7.06221Z" fill="#1A1A1A"/>
</svg>
