<svg width="257" height="84" viewBox="0 0 257 84" fill="none" xmlns="http://www.w3.org/2000/svg">
<path fill-rule="evenodd" clip-rule="evenodd" d="M29.7024 30.1983C29.7024 31.9746 29.1166 33.7028 28.0332 35.1227L1.6843 69.656C-2.43723 75.0578 1.47478 82.7761 8.33418 82.7761H71.3137C78.1731 82.7761 82.0851 75.0578 77.9636 69.656L50.7827 34.0324C49.6994 32.6125 49.1136 30.8842 49.1136 29.1079V12.7033C49.1136 11.2699 50.293 10.108 51.7479 10.108C54.5812 10.108 56.878 7.84523 56.878 5.05399C56.878 2.26275 54.5812 0 51.7479 0H27.068C24.2347 0 21.9379 2.26275 21.9379 5.05399C21.9379 7.84523 24.2347 10.108 27.068 10.108C28.5229 10.108 29.7024 11.2699 29.7024 12.7033V30.1983ZM32.4754 12.0203C32.4754 10.9642 33.3445 10.108 34.4165 10.108H44.3994C45.4715 10.108 46.3405 10.9642 46.3405 12.0203V30.6802C46.3405 32.4545 46.925 34.1809 48.0061 35.6L75.309 71.4372C78.053 75.0389 75.4445 80.1808 70.8734 80.1808H8.77448C4.20338 80.1808 1.59486 75.0389 4.33882 71.4373L30.8098 36.6919C31.8909 35.2728 32.4754 33.5465 32.4754 31.7722V12.0203Z" fill="#426691"/>
<path fill-rule="evenodd" clip-rule="evenodd" d="M66.991 78.4051H12.6569C8.65739 78.4051 6.37504 73.877 8.77589 70.7052L20.5152 55.1964C21.0859 54.4425 21.844 53.8439 22.7533 53.5578C24.4235 53.0321 27.5328 52.2605 31.5746 52.1819C34.742 52.1204 37.4325 53.0361 40.1018 53.9446C42.6466 54.8108 45.1721 55.6703 48.0733 55.6703C50.433 55.6703 52.5248 55.4145 54.1896 55.1058C56.6392 54.6517 59.2937 55.4092 60.7838 57.3777L70.872 70.7052C73.2728 73.8769 70.9905 78.4051 66.991 78.4051ZM29.9797 62.8334C31.8175 62.8334 33.3073 61.3656 33.3073 59.5551C33.3073 57.7446 31.8175 56.2768 29.9797 56.2768C28.1419 56.2768 26.6521 57.7446 26.6521 59.5551C26.6521 61.3656 28.1419 62.8334 29.9797 62.8334ZM36.0804 67.341C36.0804 68.4726 35.1492 69.3899 34.0006 69.3899C32.852 69.3899 31.9208 68.4726 31.9208 67.341C31.9208 66.2094 32.852 65.2921 34.0006 65.2921C35.1492 65.2921 36.0804 66.2094 36.0804 67.341ZM52.9958 66.1116C54.8336 66.1116 56.3234 64.6439 56.3234 62.8334C56.3234 61.0228 54.8336 59.5551 52.9958 59.5551C51.158 59.5551 49.6682 61.0228 49.6682 62.8334C49.6682 64.6439 51.158 66.1116 52.9958 66.1116Z" fill="#BEE093"/>
<path fill-rule="evenodd" clip-rule="evenodd" d="M47.727 51.3594C48.6459 51.3594 49.3909 50.6256 49.3909 49.7203C49.3909 48.815 48.6459 48.0812 47.727 48.0812C46.8081 48.0812 46.0632 48.815 46.0632 49.7203C46.0632 50.6256 46.8081 51.3594 47.727 51.3594ZM47.727 52.9986C49.5648 52.9986 51.0547 51.5308 51.0547 49.7203C51.0547 47.9098 49.5648 46.442 47.727 46.442C45.8892 46.442 44.3994 47.9098 44.3994 49.7203C44.3994 51.5308 45.8892 52.9986 47.727 52.9986Z" fill="#BEE093"/>
<path fill-rule="evenodd" clip-rule="evenodd" d="M35.803 39.8855C36.2625 39.8855 36.6349 39.5186 36.6349 39.066C36.6349 38.6133 36.2625 38.2464 35.803 38.2464C35.3436 38.2464 34.9711 38.6133 34.9711 39.066C34.9711 39.5186 35.3436 39.8855 35.803 39.8855ZM35.803 41.5247C37.1814 41.5247 38.2988 40.4239 38.2988 39.066C38.2988 37.7081 37.1814 36.6073 35.803 36.6073C34.4247 36.6073 33.3073 37.7081 33.3073 39.066C33.3073 40.4239 34.4247 41.5247 35.803 41.5247Z" fill="#BEE093"/>
<path d="M96.0198 68.2643C91.3345 68.2643 87.3147 67.5562 83.9605 66.14C82.2035 65.4581 80.766 64.7238 79.6479 63.937L82.4431 59.2163H83.2417C83.9871 59.7408 85.0786 60.3441 86.5161 61.0259C89.3912 62.1799 92.2929 62.7569 95.2212 62.7569C98.7884 62.7569 101.53 61.9176 103.447 60.2391C105.417 58.5082 106.402 56.2003 106.402 53.3155C106.402 51.4796 105.896 49.9323 104.885 48.6734C103.873 47.3621 102.622 46.2869 101.131 45.4476C99.6403 44.6084 97.5905 43.5856 94.9816 42.3792C91.8403 41.0154 89.3113 39.7566 87.3946 38.6026C85.4779 37.3962 83.8274 35.8227 82.4431 33.8819C81.112 31.8887 80.4465 29.4497 80.4465 26.5648C80.4465 23.68 81.112 21.1098 82.4431 18.8544C83.8274 16.5989 85.7707 14.8418 88.2731 13.5829C90.8287 12.2716 93.8103 11.616 97.2178 11.616C101.69 11.616 105.577 12.3503 108.878 13.819C110.315 14.3959 111.62 15.104 112.791 15.9433L109.996 20.664H109.197C108.505 20.087 107.547 19.51 106.322 18.933C103.66 17.7266 100.891 17.1234 98.0164 17.1234C95.301 17.1234 93.0116 17.9889 91.1482 19.7198C89.3379 21.3983 88.4328 23.4177 88.4328 25.7781C88.4328 27.6139 88.9386 29.1874 89.9502 30.4988C90.9618 31.7576 92.213 32.8067 93.7038 33.6459C95.1946 34.4851 97.2444 35.5079 99.8532 36.7143C102.995 38.0781 105.524 39.3632 107.44 40.5696C109.357 41.7235 110.981 43.2971 112.312 45.2903C113.696 47.231 114.388 49.6438 114.388 52.5287C114.388 57.3543 112.791 61.1833 109.597 64.0157C106.402 66.8481 101.876 68.2643 96.0198 68.2643Z" fill="#426690"/>
<path d="M133.945 68.2643C128.408 68.2643 124.096 66.5334 121.008 63.0716C117.92 59.6097 116.376 54.5219 116.376 47.808C116.376 41.0941 117.866 36.0062 120.848 32.5444C123.883 29.0825 127.982 27.3516 133.147 27.3516C136.661 27.3516 139.855 28.086 142.73 29.5546C144.115 30.184 145.313 30.8921 146.324 31.6789L143.529 36.3996H142.73C142.038 35.8751 141.16 35.2981 140.095 34.6687C137.859 33.4623 135.809 32.8591 133.945 32.8591C130.964 32.8591 128.621 34.0393 126.917 36.3996C125.214 38.76 124.362 42.5628 124.362 47.808C124.362 53.1056 125.24 56.9347 126.997 59.295C128.808 61.6029 131.39 62.7569 134.744 62.7569C136.714 62.7569 138.764 62.1799 140.893 61.0259C142.012 60.3965 142.89 59.7933 143.529 59.2163H144.328L147.123 63.937C146.164 64.7238 144.967 65.4581 143.529 66.14C140.76 67.5562 137.566 68.2643 133.945 68.2643Z" fill="#426690"/>
<path d="M153.917 21.8441C152.533 21.8441 151.388 21.3983 150.483 20.5066C149.578 19.6149 149.126 18.4872 149.126 17.1234C149.126 15.7597 149.578 14.632 150.483 13.7403C151.388 12.8486 152.533 12.4027 153.917 12.4027C155.302 12.4027 156.446 12.8486 157.352 13.7403C158.257 14.632 158.709 15.7597 158.709 17.1234C158.709 18.4872 158.257 19.6149 157.352 20.5066C156.446 21.3983 155.302 21.8441 153.917 21.8441ZM149.924 67.4775V28.1384H157.911V67.4775H149.924Z" fill="#426690"/>
<path d="M180.672 68.2643C175.134 68.2643 170.822 66.5334 167.734 63.0716C164.646 59.6097 163.102 54.5219 163.102 47.808C163.102 41.1466 164.592 36.0849 167.574 32.6231C170.556 29.1088 174.522 27.3516 179.474 27.3516C184.425 27.3516 188.392 29.1088 191.373 32.6231C194.355 36.0849 195.846 41.1466 195.846 47.808V48.9882L194.248 50.5617H171.088C171.088 54.6005 171.993 57.6428 173.803 59.6884C175.614 61.734 178.169 62.7569 181.47 62.7569C183.44 62.7569 185.49 62.1799 187.62 61.0259C188.738 60.3965 189.616 59.7933 190.255 59.2163H191.054L193.849 63.937C192.891 64.7238 191.693 65.4581 190.255 66.14C187.487 67.5562 184.292 68.2643 180.672 68.2643ZM187.859 45.0542C187.859 40.9105 187.087 37.8421 185.543 35.8489C184.052 33.8557 182.029 32.8591 179.474 32.8591C176.918 32.8591 174.868 33.8557 173.324 35.8489C171.833 37.8421 171.088 40.9105 171.088 45.0542H187.859Z" fill="#426690"/>
<path d="M215.403 68.2643C211.409 68.2643 208.215 67.1104 205.819 64.8025C203.423 62.4946 202.225 59.4524 202.225 55.6758V33.6459H196.235V28.9252L206.618 18.697H210.212V28.1384H220.194V33.6459H210.212V55.6758C210.212 57.9837 210.744 59.7408 211.809 60.9472C212.874 62.1536 214.338 62.7569 216.201 62.7569C217.799 62.7569 219.369 62.2323 220.913 61.1833C221.605 60.7112 222.297 60.1867 222.99 59.6097H223.788L226.583 64.3304C225.412 65.2221 224.347 65.8778 223.389 66.2974C220.833 67.6087 218.171 68.2643 215.403 68.2643Z" fill="#426690"/>
<path d="M231.045 84C228.862 84 226.918 83.6066 225.215 82.8198C224.309 82.5051 223.591 82.1117 223.058 81.6396L225.055 76.5255H225.853C226.386 77.0501 226.812 77.391 227.131 77.5484C228.143 78.1778 229.181 78.4925 230.246 78.4925C231.63 78.4925 232.855 77.968 233.92 76.9189C235.038 75.9223 235.81 74.611 236.236 72.985L237.833 67.4775H235.437L221.78 28.1384H229.447L238.232 54.1022C238.498 54.889 238.871 56.2266 239.35 58.1148C239.51 58.5869 239.696 59.3475 239.909 60.3965H240.229C240.335 59.5573 240.495 58.7967 240.708 58.1148L241.746 54.1022L249.014 28.1384H257L244.222 72.985C243.264 76.2895 241.64 78.9384 239.35 80.9315C237.061 82.9772 234.292 84 231.045 84Z" fill="#426690"/>
</svg>
